<svg width="3500" height="1326" viewBox="0 0 3500 1326" fill="none" xmlns="http://www.w3.org/2000/svg">
<path d="M1392.29 1321.68C1346.84 1321.68 1310 1284.84 1310 1239.39V966.743C1310 921.301 1346.84 884.456 1392.29 884.456C1437.73 884.456 1474.57 921.301 1474.57 966.743V991.306H1416.24V966.743C1416.24 953.847 1405.18 942.794 1392.29 942.794C1379.39 942.794 1368.34 953.847 1368.34 966.743V1239.39C1368.34 1252.29 1379.39 1263.34 1392.29 1263.34C1405.18 1263.34 1416.24 1252.29 1416.24 1239.39V1200.09H1474.57V1239.39C1474.57 1284.84 1437.73 1321.68 1392.29 1321.68ZM1563.61 883.228V1320.45H1505.28V883.228H1563.61ZM1736.78 1222.2L1739.24 882H1798.19L1794.51 1325.36H1703.01L1653.27 982.095V1325.36H1594.32V882H1689.5L1736.78 1222.2ZM1971.98 1091.4H1887.23V1264.57H1972.59V1322.91H1828.9V884.456H1972.59V942.794H1887.23V1033.06H1971.98V1091.4ZM2181.38 883.228H2283.93V1321.68H2226.2V974.726L2171.55 1322.91H2148.83L2143.3 1321.68L2138.39 1322.91H2115.67L2061.63 974.726V1321.68H2003.29V883.228H2106.46L2143.92 1131.32L2181.38 883.228ZM2465.08 1322.91L2442.97 1171.23H2380.95L2360.69 1322.91H2301.74L2368.06 883.842H2447.27L2524.03 1322.91H2465.08ZM2388.94 1112.89H2434.38L2411.04 953.233L2388.94 1112.89ZM2637.02 1321.68C2591.58 1321.68 2554.74 1284.84 2554.74 1239.39V966.743C2554.74 921.301 2591.58 884.456 2637.02 884.456C2682.47 884.456 2719.31 921.301 2719.31 966.743V991.306H2660.97V966.743C2660.97 953.847 2649.92 942.794 2637.02 942.794C2624.13 942.794 2613.07 953.847 2613.07 966.743V1239.39C2613.07 1252.29 2624.13 1263.34 2637.02 1263.34C2649.92 1263.34 2660.97 1252.29 2660.97 1239.39V1200.09H2719.31V1239.39C2719.31 1284.84 2682.47 1321.68 2637.02 1321.68ZM2918.27 1324.14H2855.64L2821.86 1231.41H2808.35V1324.14H2750.01V884.456H2841.51C2882.04 884.456 2914.59 917.002 2914.59 957.532V1158.34C2914.59 1184.74 2901.08 1207.46 2880.2 1220.36L2918.27 1324.14ZM2808.35 942.794V1173.07H2841.51C2849.49 1173.07 2856.25 1166.32 2856.25 1158.34V957.532C2856.25 949.549 2849.49 942.794 2841.51 942.794H2808.35ZM3102.49 1322.91L3080.39 1171.23H3018.37L2998.1 1322.91H2939.15L3005.47 883.842H3084.69L3161.45 1322.91H3102.49ZM3026.35 1112.89H3071.79L3048.46 953.233L3026.35 1112.89ZM3324.79 1265.8L3323.56 1322.91H3172.5L3236.36 941.566H3173.73V884.456H3305.14L3241.28 1265.8H3324.79ZM3498.58 1091.4H3413.83V1264.57H3499.19V1322.91H3355.5V884.456H3499.19V942.794H3413.83V1033.06H3498.58V1091.4Z" fill="white"/>
<path d="M1000.62 208.239C1001.61 208.224 1002.61 208.147 1003.59 208.01C1008.51 207.372 1013.51 208.327 1017.85 210.735C1022.19 213.142 1025.64 216.877 1027.71 221.39C1031.08 228.765 1036.51 235.011 1043.34 239.381C1050.17 243.751 1058.11 246.059 1066.22 246.028C1074.33 245.997 1082.26 243.63 1089.06 239.208C1095.86 234.787 1101.24 228.499 1104.55 221.099C1106.08 217.689 1108.41 214.698 1111.35 212.379C1114.28 210.06 1117.72 208.482 1121.4 207.777C1126.42 206.812 1130.98 204.219 1134.37 200.4C1137.77 196.58 1139.81 191.747 1140.18 186.649C1140.55 181.551 1139.23 176.473 1136.43 172.201C1133.62 167.93 1129.48 164.704 1124.65 163.022C1121.3 161.846 1118.26 159.917 1115.76 157.382C1113.27 154.848 1111.39 151.775 1110.27 148.401C1109.14 145.027 1108.81 141.44 1109.29 137.917C1109.77 134.393 1111.05 131.027 1113.04 128.076C1116.34 123.173 1117.65 117.197 1116.7 111.364C1115.75 105.531 1112.61 100.279 1107.92 96.6765C1103.24 93.0741 1097.36 91.3919 1091.47 91.9722C1085.59 92.5525 1080.15 95.3516 1076.26 99.8001C1074.08 102.281 1071.39 104.268 1068.38 105.63C1065.37 106.991 1062.1 107.695 1058.8 107.695C1055.49 107.695 1052.22 106.991 1049.21 105.63C1046.2 104.268 1043.51 102.281 1041.33 99.8001C1039.16 97.304 1036.48 95.3049 1033.47 93.9394C1030.46 92.5739 1027.2 91.8743 1023.89 91.8883C1017.72 91.8952 1011.81 94.3491 1007.44 98.7116C1003.08 103.074 1000.63 108.989 1000.62 115.158C1000.6 119.236 1001.67 123.245 1003.72 126.77C1003.99 127.244 1004.27 127.681 1004.56 128.103C1006.54 131.053 1007.82 134.42 1008.3 137.943C1008.78 141.466 1008.45 145.052 1007.33 148.426C1006.2 151.8 1004.32 154.872 1001.83 157.407C999.335 159.941 996.294 161.87 992.938 163.046C987.678 164.894 983.25 168.558 980.451 173.381C978.4 176.897 977.329 180.899 977.35 184.969C977.357 191.139 979.811 197.054 984.173 201.416C988.536 205.779 994.451 208.232 1000.62 208.239Z" fill="white"/>
<path d="M147.304 334.664C143.948 333.488 140.906 331.558 138.412 329.024C135.918 326.489 134.038 323.416 132.917 320.042C131.795 316.668 131.462 313.081 131.943 309.558C132.423 306.035 133.705 302.668 135.689 299.717C138.989 294.814 140.296 288.838 139.346 283.005C138.395 277.172 135.259 271.92 130.573 268.318C125.888 264.715 120.007 263.033 114.125 263.613C108.244 264.194 102.804 266.993 98.9133 271.441C96.7295 273.922 94.0422 275.909 91.0304 277.271C88.0185 278.632 84.7513 279.336 81.4461 279.336C78.1409 279.336 74.8736 278.632 71.8618 277.271C68.85 275.909 66.1627 273.922 63.9789 271.441C61.8151 268.941 59.1367 266.937 56.1271 265.568C53.1174 264.198 49.8474 263.495 46.5407 263.506C40.3712 263.513 34.4564 265.967 30.0939 270.329C25.7313 274.692 23.2774 280.607 23.2705 286.776C23.2502 290.854 24.3208 294.863 26.3713 298.388C26.6447 298.862 26.9181 299.299 27.2061 299.72C29.1897 302.671 30.4707 306.038 30.9508 309.561C31.4308 313.084 31.0972 316.67 29.9754 320.044C28.8536 323.418 26.9736 326.49 24.4796 329.024C21.9856 331.559 18.9441 333.488 15.5884 334.664C10.3281 336.512 5.89997 340.176 3.10106 344.998C1.05033 348.515 -0.0204166 352.516 0.000294862 356.587C0.00722389 362.757 2.46112 368.671 6.82364 373.034C11.1861 377.396 17.101 379.85 23.2705 379.857C24.2643 379.842 25.2561 379.765 26.2404 379.627C31.1622 378.99 36.1589 379.945 40.4987 382.352C44.8384 384.76 48.2932 388.494 50.3571 393.008C53.7293 400.383 59.156 406.629 65.9874 410.999C72.8188 415.369 80.765 417.677 88.8744 417.646C96.9837 417.615 104.912 415.247 111.71 410.826C118.508 406.405 123.888 400.117 127.204 392.717C128.735 389.307 131.065 386.316 133.996 383.997C136.928 381.678 140.375 380.099 144.046 379.395C149.065 378.43 153.627 375.837 157.023 372.017C160.42 368.198 162.462 363.364 162.833 358.266C163.204 353.169 161.883 348.091 159.076 343.819C156.268 339.548 152.131 336.322 147.304 334.64V334.664Z" fill="white"/>
<path d="M325.783 138.429C326.777 138.413 327.769 138.337 328.753 138.199C333.675 137.561 338.672 138.516 343.011 140.924C347.351 143.332 350.806 147.066 352.87 151.579C356.242 158.954 361.669 165.201 368.5 169.571C375.331 173.94 383.278 176.248 391.387 176.218C399.496 176.187 407.425 173.819 414.223 169.398C421.021 164.976 426.401 158.689 429.717 151.289C431.248 147.879 433.578 144.888 436.509 142.569C439.441 140.25 442.888 138.671 446.559 137.966C451.578 137.002 456.139 134.409 459.536 130.589C462.932 126.769 464.974 121.936 465.345 116.838C465.716 111.74 464.396 106.662 461.589 102.391C458.781 98.1195 454.643 94.8933 449.816 93.2119C446.461 92.0359 443.419 90.1066 440.925 87.5719C438.431 85.0373 436.551 81.9648 435.43 78.5904C434.308 75.216 433.975 71.6294 434.455 68.1062C434.936 64.5829 436.217 61.2166 438.202 58.2658C441.501 53.3626 442.809 47.3866 441.859 41.5534C440.908 35.7203 437.771 30.4683 433.086 26.8659C428.401 23.2636 422.519 21.5814 416.638 22.1617C410.756 22.7419 405.317 25.5411 401.426 29.9896C399.242 32.4706 396.555 34.4578 393.543 35.8191C390.531 37.1804 387.264 37.8845 383.959 37.8845C380.654 37.8845 377.386 37.1804 374.374 35.8191C371.363 34.4578 368.675 32.4706 366.492 29.9896C364.326 27.4934 361.646 25.4943 358.637 24.1288C355.627 22.7634 352.358 22.0637 349.053 22.0777C342.884 22.0846 336.969 24.5385 332.607 28.9011C328.244 33.2636 325.79 39.1784 325.783 45.3479C325.763 49.4258 326.833 53.4349 328.884 56.9598C329.157 57.4339 329.431 57.8702 329.719 58.292C331.702 61.2429 332.983 64.6091 333.463 68.1322C333.944 71.6553 333.61 75.2415 332.488 78.6156C331.366 81.9896 329.486 85.0617 326.992 87.596C324.498 90.1303 321.457 92.0594 318.101 93.2352C312.841 95.0831 308.413 98.7479 305.614 103.57C303.563 107.086 302.492 111.088 302.513 115.159C302.52 121.328 304.974 127.243 309.336 131.606C313.699 135.968 319.614 138.422 325.783 138.429Z" fill="white"/>
<path d="M744.647 650.373H907.539H1000.62H1023.89H1047.16V603.833H255.973V650.373H279.243H395.594H558.486H744.647Z" fill="white"/>
<path d="M651.567 789.995C675.347 789.957 698.958 793.991 721.377 801.921V696.914H581.756V801.921C604.175 793.991 627.786 789.957 651.567 789.995Z" fill="white"/>
<path d="M418.864 394.401V394.736C418.887 395.411 418.908 396.083 418.908 396.758C418.907 400.208 418.139 403.615 416.66 406.732C415.18 409.849 413.026 412.598 410.353 414.78C407.681 416.962 404.556 418.522 401.206 419.348C397.856 420.173 394.364 420.244 390.983 419.554C377.458 416.793 363.487 417.075 350.083 420.378C336.68 423.681 324.178 429.923 313.483 438.651C302.789 447.38 294.168 458.377 288.246 470.847C282.324 483.317 279.249 496.948 279.243 510.753C279.223 527.103 283.551 543.165 291.782 557.293H353.056C349.328 546.764 348.181 535.494 349.713 524.43C351.244 513.367 355.409 502.832 361.857 493.712C368.305 484.592 376.848 477.152 386.768 472.019C396.688 466.886 407.695 464.208 418.864 464.212V510.753C412.692 510.753 406.774 513.204 402.41 517.568C398.046 521.932 395.594 527.851 395.594 534.023C395.594 540.194 398.046 546.113 402.41 550.477C406.774 554.841 412.692 557.293 418.864 557.293H555.964C550.756 537.098 552.481 515.74 560.862 496.642C569.243 477.545 583.795 461.816 602.184 451.977C620.573 442.138 641.733 438.76 662.271 442.384C682.809 446.009 701.535 456.425 715.446 471.964L680.768 503.001C673.098 494.403 662.512 488.958 651.057 487.718C639.603 486.479 628.097 489.534 618.766 496.292C609.435 503.049 602.944 513.029 600.549 524.298C598.154 535.568 600.026 547.325 605.803 557.293H906.483C904.546 547.763 899.484 539.152 892.099 532.824C884.714 526.497 875.428 522.816 865.714 522.364L867.805 475.87C889.493 476.871 910.095 485.653 925.836 500.606C941.577 515.56 951.404 535.684 953.515 557.293H988.08C996.311 543.165 1000.64 527.103 1000.62 510.753C1000.61 496.947 997.538 483.315 991.616 470.845C985.693 458.374 977.072 447.376 966.376 438.647C955.681 429.919 943.178 423.677 929.773 420.375C916.368 417.072 902.397 416.792 888.87 419.554C885.49 420.244 881.998 420.173 878.648 419.348C875.298 418.522 872.173 416.962 869.5 414.78C866.828 412.598 864.673 409.849 863.194 406.732C861.714 403.615 860.947 400.208 860.946 396.758C860.946 396.083 860.966 395.411 860.99 394.736V394.326C860.946 369.661 851.124 346.02 833.677 328.586C816.23 311.152 792.582 301.347 767.917 301.321C765.721 301.321 763.322 301.425 760.128 301.664C755.306 302.028 750.491 300.879 746.354 298.376C742.217 295.873 738.964 292.142 737.049 287.702C729.726 270.76 717.533 256.377 702.018 246.379C686.504 236.382 668.368 231.221 649.914 231.553C631.46 231.884 613.521 237.693 598.375 248.24C583.229 258.788 571.56 273.6 564.85 290.794C562.758 296.171 558.741 300.579 553.58 303.16C548.419 305.74 542.483 306.309 536.926 304.756C523.098 300.897 508.565 300.29 494.464 302.982C480.363 305.674 467.076 311.592 455.643 320.273C444.21 328.955 434.94 340.164 428.56 353.024C422.179 365.884 418.861 380.046 418.864 394.401ZM728.649 335.644C742.961 334.224 757.405 336.246 770.776 341.542C784.148 346.838 796.06 355.254 805.518 366.088C814.976 376.923 821.707 389.862 825.149 403.826C828.591 417.79 828.644 432.375 825.305 446.364L780.044 435.526C781.996 427.312 781.525 418.708 778.689 410.756C775.853 402.804 770.773 395.845 764.064 390.72C757.355 385.595 749.304 382.525 740.886 381.88C732.468 381.236 724.044 383.045 716.633 387.089L694.235 346.287C704.867 340.445 716.575 336.825 728.649 335.644ZM536.693 350.77C559.169 350.749 580.839 359.143 597.437 374.299L566.074 408.686C559.823 402.992 552.051 399.237 543.705 397.878C535.358 396.519 526.797 397.615 519.061 401.032C511.326 404.449 504.751 410.04 500.135 417.126C495.519 424.211 493.061 432.485 493.061 440.942H446.521C446.547 417.035 456.056 394.114 472.96 377.209C489.865 360.305 512.786 350.796 536.693 350.77Z" fill="white"/>
<path d="M280.901 696.914L324.236 1325.21H394.777L373.112 696.914H280.901Z" fill="white"/>
<path d="M915.018 1131.72C916.423 1132.41 917.83 1133.1 919.189 1133.89C934.354 1125.11 952.267 1122.36 969.365 1126.19L998.962 696.914H930.024L915.018 1131.72Z" fill="white"/>
<path d="M1147.92 1242.2C1144.57 1241.03 1141.53 1239.1 1139.03 1236.56C1136.54 1234.03 1134.66 1230.96 1133.54 1227.58C1132.41 1224.21 1132.08 1220.62 1132.56 1217.1C1133.04 1213.57 1134.32 1210.21 1136.31 1207.26C1139.61 1202.35 1140.92 1196.38 1139.97 1190.54C1139.02 1184.71 1135.88 1179.46 1131.19 1175.86C1126.51 1172.25 1120.63 1170.57 1114.74 1171.15C1108.86 1171.73 1103.42 1174.53 1099.53 1178.98C1097.35 1181.46 1094.66 1183.45 1091.65 1184.81C1088.64 1186.17 1085.37 1186.88 1082.07 1186.88C1078.76 1186.88 1075.49 1186.17 1072.48 1184.81C1069.47 1183.45 1066.78 1181.46 1064.6 1178.98C1062.43 1176.48 1059.76 1174.48 1056.75 1173.11C1053.74 1171.74 1050.47 1171.03 1047.16 1171.05C1040.99 1171.05 1035.08 1173.51 1030.71 1177.87C1026.35 1182.23 1023.9 1188.15 1023.89 1194.32C1023.87 1198.39 1024.94 1202.4 1026.99 1205.93C1027.26 1206.4 1027.54 1206.84 1027.83 1207.26C1029.81 1210.21 1031.09 1213.58 1031.57 1217.1C1032.05 1220.62 1031.72 1224.21 1030.6 1227.58C1029.47 1230.96 1027.59 1234.03 1025.1 1236.56C1022.61 1239.1 1019.56 1241.03 1016.21 1242.2C1010.95 1244.05 1006.52 1247.72 1003.72 1252.54C1001.67 1256.05 1000.6 1260.06 1000.62 1264.13C1000.63 1270.3 1003.08 1276.21 1007.44 1280.57C1011.81 1284.94 1017.72 1287.39 1023.89 1287.4C1024.88 1287.38 1025.88 1287.3 1026.86 1287.17C1031.78 1286.53 1036.78 1287.48 1041.12 1289.89C1045.46 1292.3 1048.91 1296.03 1050.98 1300.55C1054.35 1307.92 1059.78 1314.17 1066.61 1318.54C1073.44 1322.91 1081.38 1325.22 1089.49 1325.18C1097.6 1325.15 1105.53 1322.79 1112.33 1318.37C1119.13 1313.94 1124.51 1307.66 1127.82 1300.26C1129.35 1296.85 1131.68 1293.85 1134.62 1291.54C1137.55 1289.22 1140.99 1287.64 1144.67 1286.93C1149.69 1285.97 1154.25 1283.38 1157.64 1279.56C1161.04 1275.74 1163.08 1270.9 1163.45 1265.81C1163.82 1260.71 1162.5 1255.63 1159.7 1251.36C1156.89 1247.09 1152.75 1243.86 1147.92 1242.18V1242.2Z" fill="white"/>
<path d="M972.035 1179.48C969.849 1176.84 967.106 1174.71 964.001 1173.25C960.897 1171.8 957.509 1171.04 954.08 1171.05C950.774 1171.03 947.505 1171.73 944.497 1173.1C941.488 1174.47 938.81 1176.47 936.647 1178.97C934.465 1181.45 931.78 1183.44 928.771 1184.8C925.762 1186.16 922.497 1186.87 919.195 1186.87C915.893 1186.87 912.629 1186.16 909.619 1184.8C906.61 1183.45 903.925 1181.46 901.742 1178.98C898.151 1174.86 893.217 1172.15 887.815 1171.32C886.642 1171.13 885.456 1171.04 884.269 1171.05C880.187 1171.05 876.177 1172.12 872.642 1174.17C869.107 1176.21 866.17 1179.14 864.127 1182.67C862.083 1186.21 861.005 1190.22 860.999 1194.3C860.993 1198.38 862.06 1202.39 864.094 1205.93C864.28 1206.25 864.51 1206.65 864.763 1207.01C866.794 1209.96 868.121 1213.33 868.638 1216.87C869.156 1220.4 868.851 1224.01 867.747 1227.42C866.644 1230.82 864.771 1233.92 862.274 1236.48C859.777 1239.04 856.724 1240.99 853.351 1242.18C848.085 1244.03 843.65 1247.69 840.844 1252.52C838.781 1256.04 837.704 1260.05 837.728 1264.13C837.735 1270.3 840.189 1276.21 844.552 1280.57C848.914 1284.94 854.829 1287.39 860.999 1287.4C862.06 1287.38 863.12 1287.3 864.172 1287.15C869.06 1286.57 874.007 1287.55 878.302 1289.95C882.597 1292.36 886.019 1296.06 888.076 1300.54C890.755 1306.34 894.699 1311.48 899.619 1315.56C904.575 1319.66 910.403 1322.56 916.657 1324.06C922.911 1325.55 929.424 1325.6 935.696 1324.18C941.969 1322.77 947.835 1319.94 952.844 1315.91C957.853 1311.88 961.873 1306.75 964.595 1300.93C955.697 1286.63 952.279 1269.59 954.973 1252.96C957.667 1236.34 966.291 1221.25 979.249 1210.49C977.989 1205.19 977.351 1199.76 977.35 1194.32C977.363 1188.9 975.483 1183.65 972.035 1179.48Z" fill="white"/>
<path d="M651.567 1069.24C728.677 1069.24 791.188 1017.15 791.188 952.887C791.188 888.628 728.677 836.536 651.567 836.536C574.456 836.536 511.945 888.628 511.945 952.887C511.945 1017.15 574.456 1069.24 651.567 1069.24Z" fill="white"/>
<path d="M581.756 1103.85V1325.21H721.377V1103.85C676.196 1119.76 626.937 1119.76 581.756 1103.85Z" fill="white"/>
<path d="M465.405 952.887C465.405 901.567 492.695 855.733 535.215 825.863V696.914H419.679L441.346 1325.21H535.215V1079.91C492.695 1050.04 465.405 1004.21 465.405 952.887Z" fill="white"/>
<path d="M868.637 1126.29L883.452 696.914H767.918V825.863C810.438 855.733 837.729 901.567 837.729 952.887C837.729 1004.21 810.438 1050.04 767.918 1079.91V1325.21H827.35C817.392 1319.74 808.922 1311.92 802.676 1302.43C796.431 1292.94 792.6 1282.07 791.516 1270.76C790.432 1259.45 792.129 1248.05 796.459 1237.55C800.788 1227.04 807.62 1217.76 816.358 1210.5C814.224 1201.53 813.885 1192.24 815.362 1183.14C816.838 1174.05 820.101 1165.33 824.961 1157.51C829.821 1149.68 836.182 1142.89 843.678 1137.53C851.175 1132.17 859.657 1128.35 868.637 1126.29Z" fill="white"/>
<path d="M279.243 347.861H325.783C325.806 322.642 317.881 298.057 303.135 277.598C288.389 257.14 267.572 241.848 243.64 233.895L240.056 232.702L225.349 276.857L228.924 278.05C243.584 282.922 256.336 292.289 265.369 304.821C274.402 317.353 279.257 332.412 279.243 347.861Z" fill="white"/>
<path d="M911.32 138.429L914.901 137.236L900.194 93.0811L896.605 94.2766C872.672 102.228 851.854 117.519 837.107 137.977C822.36 158.436 814.435 183.021 814.458 208.24H860.999C860.985 192.791 865.84 177.731 874.874 165.199C883.907 152.667 896.66 143.3 911.32 138.429Z" fill="white"/>
<path d="M628.296 115.159H674.837C674.859 89.9396 666.935 65.3547 652.189 44.8961C637.442 24.4376 616.625 9.14567 592.693 1.1926L589.109 0L574.402 44.1553L577.974 45.3479C592.635 50.219 605.388 59.5859 614.421 72.1179C623.455 84.65 628.31 99.71 628.296 115.159Z" fill="white"/>
<path d="M1081.37 955.272L1077.78 954.079L1063.08 998.234L1066.65 999.427C1081.31 1004.3 1094.06 1013.67 1103.1 1026.2C1112.13 1038.73 1116.98 1053.79 1116.97 1069.24H1163.51C1163.53 1044.02 1155.61 1019.43 1140.86 998.975C1126.12 978.517 1105.3 963.225 1081.37 955.272Z" fill="white"/>
</svg>
