<svg width="1863" height="1863" viewBox="0 0 1863 1863" fill="none" xmlns="http://www.w3.org/2000/svg">
<circle cx="931.5" cy="931.5" r="931.5" fill="#5A5A5A"/>
<path d="M1350.62 477.24C1351.61 477.224 1352.61 477.148 1353.59 477.01C1358.51 476.372 1363.51 477.327 1367.85 479.735C1372.19 482.143 1375.64 485.877 1377.71 490.39C1381.08 497.766 1386.51 504.012 1393.34 508.382C1400.17 512.752 1408.11 515.059 1416.22 515.029C1424.33 514.998 1432.26 512.63 1439.06 508.209C1445.86 503.787 1451.24 497.5 1454.55 490.1C1456.08 486.69 1458.41 483.699 1461.35 481.38C1464.28 479.061 1467.72 477.482 1471.4 476.777C1476.42 475.813 1480.98 473.22 1484.37 469.4C1487.77 465.58 1489.81 460.747 1490.18 455.649C1490.55 450.551 1489.23 445.473 1486.43 441.202C1483.62 436.931 1479.48 433.704 1474.65 432.023C1471.3 430.847 1468.26 428.918 1465.76 426.383C1463.27 423.848 1461.39 420.776 1460.27 417.401C1459.14 414.027 1458.81 410.44 1459.29 406.917C1459.77 403.394 1461.05 400.028 1463.04 397.077C1466.34 392.174 1467.65 386.198 1466.7 380.364C1465.75 374.531 1462.61 369.279 1457.92 365.677C1453.24 362.075 1447.36 360.392 1441.47 360.973C1435.59 361.553 1430.15 364.352 1426.26 368.801C1424.08 371.282 1421.39 373.269 1418.38 374.63C1415.37 375.991 1412.1 376.696 1408.8 376.696C1405.49 376.696 1402.22 375.991 1399.21 374.63C1396.2 373.269 1393.51 371.282 1391.33 368.801C1389.16 366.304 1386.48 364.305 1383.47 362.94C1380.46 361.574 1377.2 360.875 1373.89 360.889C1367.72 360.896 1361.81 363.35 1357.44 367.712C1353.08 372.075 1350.63 377.989 1350.62 384.159C1350.6 388.237 1351.67 392.246 1353.72 395.771C1353.99 396.245 1354.27 396.681 1354.56 397.103C1356.54 400.054 1357.82 403.42 1358.3 406.943C1358.78 410.466 1358.45 414.053 1357.33 417.427C1356.2 420.801 1354.32 423.873 1351.83 426.407C1349.34 428.941 1346.29 430.87 1342.94 432.046C1337.68 433.894 1333.25 437.559 1330.45 442.381C1328.4 445.897 1327.33 449.899 1327.35 453.97C1327.36 460.139 1329.81 466.054 1334.17 470.417C1338.54 474.779 1344.45 477.233 1350.62 477.24Z" fill="white"/>
<path d="M497.304 603.664C493.948 602.488 490.906 600.558 488.412 598.024C485.918 595.489 484.038 592.416 482.917 589.042C481.795 585.668 481.462 582.081 481.943 578.558C482.423 575.035 483.705 571.668 485.689 568.717C488.989 563.814 490.296 557.838 489.346 552.005C488.395 546.172 485.259 540.92 480.573 537.318C475.888 533.715 470.007 532.033 464.125 532.613C458.244 533.194 452.804 535.993 448.913 540.441C446.729 542.922 444.042 544.909 441.03 546.271C438.019 547.632 434.751 548.336 431.446 548.336C428.141 548.336 424.874 547.632 421.862 546.271C418.85 544.909 416.163 542.922 413.979 540.441C411.815 537.941 409.137 535.937 406.127 534.568C403.117 533.198 399.847 532.495 396.541 532.506C390.371 532.513 384.456 534.967 380.094 539.329C375.731 543.692 373.277 549.607 373.271 555.776C373.25 559.854 374.321 563.863 376.371 567.388C376.645 567.862 376.918 568.299 377.206 568.72C379.19 571.671 380.471 575.038 380.951 578.561C381.431 582.084 381.097 585.67 379.975 589.044C378.854 592.418 376.974 595.49 374.48 598.024C371.986 600.559 368.944 602.488 365.588 603.664C360.328 605.512 355.9 609.176 353.101 613.998C351.05 617.515 349.98 621.516 350 625.587C350.007 631.757 352.461 637.671 356.824 642.034C361.186 646.396 367.101 648.85 373.271 648.857C374.264 648.842 375.256 648.765 376.24 648.627C381.162 647.99 386.159 648.945 390.499 651.352C394.838 653.76 398.293 657.494 400.357 662.008C403.729 669.383 409.156 675.629 415.987 679.999C422.819 684.369 430.765 686.677 438.874 686.646C446.984 686.615 454.912 684.247 461.71 679.826C468.508 675.405 473.888 669.117 477.204 661.717C478.735 658.307 481.065 655.316 483.996 652.997C486.928 650.678 490.375 649.099 494.046 648.395C499.065 647.43 503.627 644.837 507.023 641.017C510.42 637.198 512.462 632.364 512.833 627.266C513.204 622.169 511.883 617.091 509.076 612.819C506.268 608.548 502.131 605.322 497.304 603.64V603.664Z" fill="white"/>
<path d="M675.783 407.428C676.777 407.413 677.769 407.336 678.753 407.199C683.675 406.561 688.672 407.516 693.011 409.924C697.351 412.331 700.806 416.065 702.87 420.579C706.242 427.954 711.669 434.2 718.5 438.57C725.331 442.94 733.278 445.248 741.387 445.217C749.496 445.186 757.425 442.819 764.223 438.397C771.021 433.976 776.401 427.688 779.717 420.288C781.248 416.878 783.578 413.887 786.509 411.568C789.441 409.249 792.888 407.671 796.559 406.966C801.578 406.001 806.139 403.408 809.536 399.588C812.932 395.769 814.974 390.936 815.345 385.838C815.716 380.74 814.396 375.662 811.589 371.39C808.781 367.119 804.643 363.893 799.816 362.211C796.461 361.035 793.419 359.106 790.925 356.571C788.431 354.037 786.551 350.964 785.43 347.59C784.308 344.215 783.975 340.629 784.455 337.106C784.936 333.582 786.217 330.216 788.202 327.265C791.501 322.362 792.809 316.386 791.859 310.553C790.908 304.72 787.771 299.468 783.086 295.865C778.401 292.263 772.519 290.581 766.638 291.161C760.756 291.741 755.317 294.541 751.426 298.989C749.242 301.47 746.555 303.457 743.543 304.819C740.531 306.18 737.264 306.884 733.959 306.884C730.654 306.884 727.386 306.18 724.374 304.819C721.363 303.457 718.675 301.47 716.492 298.989C714.326 296.493 711.646 294.494 708.637 293.128C705.627 291.763 702.358 291.063 699.053 291.077C692.884 291.084 686.969 293.538 682.607 297.901C678.244 302.263 675.79 308.178 675.783 314.347C675.763 318.425 676.833 322.434 678.884 325.959C679.157 326.433 679.431 326.87 679.719 327.292C681.702 330.242 682.983 333.609 683.463 337.132C683.944 340.655 683.61 344.241 682.488 347.615C681.366 350.989 679.486 354.061 676.992 356.596C674.498 359.13 671.457 361.059 668.101 362.235C662.841 364.083 658.413 367.747 655.614 372.57C653.563 376.086 652.492 380.088 652.513 384.158C652.52 390.328 654.974 396.243 659.336 400.605C663.699 404.968 669.614 407.421 675.783 407.428Z" fill="white"/>
<path d="M1094.65 919.373H1257.54H1350.62H1373.89H1397.16V872.833H605.973V919.373H629.243H745.594H908.486H1094.65Z" fill="white"/>
<path d="M1001.57 1058.99C1025.35 1058.96 1048.96 1062.99 1071.38 1070.92V965.914H931.756V1070.92C954.175 1062.99 977.786 1058.96 1001.57 1058.99Z" fill="white"/>
<path d="M768.864 663.401V663.735C768.887 664.41 768.908 665.082 768.908 665.757C768.907 669.207 768.139 672.614 766.66 675.731C765.18 678.848 763.026 681.597 760.353 683.779C757.681 685.961 754.556 687.522 751.206 688.347C747.856 689.173 744.364 689.243 740.983 688.553C727.458 685.793 713.487 686.075 700.083 689.378C686.68 692.681 674.178 698.922 663.483 707.651C652.789 716.38 644.168 727.377 638.246 739.847C632.324 752.317 629.249 765.947 629.243 779.752C629.223 796.103 633.551 812.165 641.782 826.293H703.056C699.328 815.764 698.181 804.494 699.713 793.43C701.244 782.366 705.409 771.831 711.857 762.711C718.305 753.591 726.848 746.152 736.768 741.019C746.688 735.885 757.695 733.208 768.864 733.212V779.752C762.692 779.752 756.774 782.204 752.41 786.568C748.046 790.932 745.594 796.851 745.594 803.022C745.594 809.194 748.046 815.113 752.41 819.477C756.774 823.841 762.692 826.293 768.864 826.293H905.964C900.756 806.098 902.481 784.739 910.862 765.642C919.243 746.545 933.795 730.815 952.184 720.977C970.573 711.138 991.733 707.76 1012.27 711.384C1032.81 715.008 1051.54 725.425 1065.45 740.963L1030.77 772C1023.1 763.403 1012.51 757.957 1001.06 756.718C989.603 755.478 978.097 758.533 968.766 765.291C959.435 772.049 952.944 782.029 950.549 793.298C948.154 804.567 950.026 816.324 955.803 826.293H1256.48C1254.55 816.762 1249.48 808.151 1242.1 801.824C1234.71 795.497 1225.43 791.816 1215.71 791.364L1217.8 744.87C1239.49 745.871 1260.1 754.652 1275.84 769.606C1291.58 784.559 1301.4 804.684 1303.51 826.293H1338.08C1346.31 812.165 1350.64 796.103 1350.62 779.752C1350.61 765.947 1347.54 752.315 1341.62 739.844C1335.69 727.374 1327.07 716.376 1316.38 707.647C1305.68 698.918 1293.18 692.677 1279.77 689.374C1266.37 686.072 1252.4 685.792 1238.87 688.553C1235.49 689.243 1232 689.173 1228.65 688.347C1225.3 687.522 1222.17 685.961 1219.5 683.779C1216.83 681.597 1214.67 678.848 1213.19 675.731C1211.71 672.614 1210.95 669.207 1210.95 665.757C1210.95 665.082 1210.97 664.41 1210.99 663.735V663.325C1210.95 638.661 1201.12 615.02 1183.68 597.585C1166.23 580.151 1142.58 570.346 1117.92 570.32C1115.72 570.32 1113.32 570.425 1110.13 570.663C1105.31 571.028 1100.49 569.878 1096.35 567.375C1092.22 564.873 1088.96 561.141 1087.05 556.701C1079.73 539.759 1067.53 525.376 1052.02 515.379C1036.5 505.382 1018.37 500.221 999.914 500.552C981.46 500.883 963.521 506.692 948.375 517.24C933.229 527.788 921.56 542.599 914.85 559.793C912.758 565.171 908.741 569.579 903.58 572.159C898.419 574.74 892.483 575.309 886.926 573.755C873.098 569.896 858.565 569.289 844.464 571.981C830.363 574.673 817.076 580.591 805.643 589.273C794.21 597.954 784.94 609.163 778.56 622.023C772.179 634.883 768.861 649.045 768.864 663.401ZM1078.65 604.644C1092.96 603.223 1107.4 605.245 1120.78 610.541C1134.15 615.837 1146.06 624.253 1155.52 635.088C1164.98 645.922 1171.71 658.861 1175.15 672.825C1178.59 686.79 1178.64 701.374 1175.3 715.363L1130.04 704.525C1132 696.311 1131.53 687.708 1128.69 679.756C1125.85 671.804 1120.77 664.844 1114.06 659.72C1107.35 654.595 1099.3 651.524 1090.89 650.88C1082.47 650.235 1074.04 652.044 1066.63 656.088L1044.24 615.287C1054.87 609.445 1066.58 605.824 1078.65 604.644ZM886.693 619.769C909.169 619.748 930.839 628.142 947.437 643.298L916.074 677.686C909.823 671.991 902.051 668.236 893.705 666.877C885.358 665.518 876.797 666.614 869.061 670.031C861.326 673.449 854.751 679.04 850.135 686.125C845.519 693.211 843.061 701.485 843.061 709.941H796.521C796.547 686.034 806.056 663.114 822.96 646.209C839.865 629.304 862.786 619.795 886.693 619.769Z" fill="white"/>
<path d="M630.901 965.914L674.236 1594.21H744.777L723.112 965.914H630.901Z" fill="white"/>
<path d="M1265.02 1400.72C1266.42 1401.41 1267.83 1402.1 1269.19 1402.89C1284.35 1394.11 1302.27 1391.36 1319.37 1395.19L1348.96 965.914H1280.02L1265.02 1400.72Z" fill="white"/>
<path d="M1497.92 1511.2C1494.57 1510.03 1491.53 1508.1 1489.03 1505.56C1486.54 1503.03 1484.66 1499.96 1483.54 1496.58C1482.41 1493.21 1482.08 1489.62 1482.56 1486.1C1483.04 1482.57 1484.32 1479.21 1486.31 1476.26C1489.61 1471.35 1490.92 1465.38 1489.97 1459.54C1489.02 1453.71 1485.88 1448.46 1481.19 1444.86C1476.51 1441.25 1470.63 1439.57 1464.74 1440.15C1458.86 1440.73 1453.42 1443.53 1449.53 1447.98C1447.35 1450.46 1444.66 1452.45 1441.65 1453.81C1438.64 1455.17 1435.37 1455.88 1432.07 1455.88C1428.76 1455.88 1425.49 1455.17 1422.48 1453.81C1419.47 1452.45 1416.78 1450.46 1414.6 1447.98C1412.43 1445.48 1409.76 1443.48 1406.75 1442.11C1403.74 1440.74 1400.47 1440.03 1397.16 1440.05C1390.99 1440.05 1385.08 1442.51 1380.71 1446.87C1376.35 1451.23 1373.9 1457.15 1373.89 1463.32C1373.87 1467.39 1374.94 1471.4 1376.99 1474.93C1377.26 1475.4 1377.54 1475.84 1377.83 1476.26C1379.81 1479.21 1381.09 1482.58 1381.57 1486.1C1382.05 1489.62 1381.72 1493.21 1380.6 1496.58C1379.47 1499.96 1377.59 1503.03 1375.1 1505.56C1372.61 1508.1 1369.56 1510.03 1366.21 1511.2C1360.95 1513.05 1356.52 1516.72 1353.72 1521.54C1351.67 1525.05 1350.6 1529.06 1350.62 1533.13C1350.63 1539.3 1353.08 1545.21 1357.44 1549.57C1361.81 1553.94 1367.72 1556.39 1373.89 1556.4C1374.88 1556.38 1375.88 1556.3 1376.86 1556.17C1381.78 1555.53 1386.78 1556.48 1391.12 1558.89C1395.46 1561.3 1398.91 1565.03 1400.98 1569.55C1404.35 1576.92 1409.78 1583.17 1416.61 1587.54C1423.44 1591.91 1431.38 1594.22 1439.49 1594.18C1447.6 1594.15 1455.53 1591.79 1462.33 1587.37C1469.13 1582.94 1474.51 1576.66 1477.82 1569.26C1479.35 1565.85 1481.68 1562.85 1484.62 1560.54C1487.55 1558.22 1490.99 1556.64 1494.67 1555.93C1499.69 1554.97 1504.25 1552.38 1507.64 1548.56C1511.04 1544.74 1513.08 1539.9 1513.45 1534.81C1513.82 1529.71 1512.5 1524.63 1509.7 1520.36C1506.89 1516.09 1502.75 1512.86 1497.92 1511.18V1511.2Z" fill="white"/>
<path d="M1322.04 1448.48C1319.85 1445.84 1317.11 1443.71 1314 1442.25C1310.9 1440.8 1307.51 1440.04 1304.08 1440.05C1300.77 1440.03 1297.51 1440.73 1294.5 1442.1C1291.49 1443.47 1288.81 1445.47 1286.65 1447.97C1284.46 1450.45 1281.78 1452.44 1278.77 1453.8C1275.76 1455.16 1272.5 1455.87 1269.19 1455.87C1265.89 1455.87 1262.63 1455.16 1259.62 1453.8C1256.61 1452.45 1253.92 1450.46 1251.74 1447.98C1248.15 1443.86 1243.22 1441.15 1237.81 1440.32C1236.64 1440.13 1235.46 1440.04 1234.27 1440.05C1230.19 1440.05 1226.18 1441.12 1222.64 1443.17C1219.11 1445.21 1216.17 1448.14 1214.13 1451.67C1212.08 1455.21 1211 1459.22 1211 1463.3C1210.99 1467.38 1212.06 1471.39 1214.09 1474.93C1214.28 1475.25 1214.51 1475.65 1214.76 1476.01C1216.79 1478.96 1218.12 1482.33 1218.64 1485.87C1219.16 1489.4 1218.85 1493.01 1217.75 1496.42C1216.64 1499.82 1214.77 1502.92 1212.27 1505.48C1209.78 1508.04 1206.72 1509.99 1203.35 1511.18C1198.08 1513.03 1193.65 1516.69 1190.84 1521.52C1188.78 1525.04 1187.7 1529.05 1187.73 1533.13C1187.74 1539.3 1190.19 1545.21 1194.55 1549.57C1198.91 1553.94 1204.83 1556.39 1211 1556.4C1212.06 1556.38 1213.12 1556.3 1214.17 1556.15C1219.06 1555.57 1224.01 1556.55 1228.3 1558.95C1232.6 1561.36 1236.02 1565.06 1238.08 1569.54C1240.76 1575.34 1244.7 1580.48 1249.62 1584.56C1254.57 1588.66 1260.4 1591.56 1266.66 1593.06C1272.91 1594.55 1279.42 1594.6 1285.7 1593.18C1291.97 1591.77 1297.83 1588.94 1302.84 1584.91C1307.85 1580.88 1311.87 1575.75 1314.59 1569.93C1305.7 1555.63 1302.28 1538.59 1304.97 1521.96C1307.67 1505.34 1316.29 1490.25 1329.25 1479.49C1327.99 1474.19 1327.35 1468.76 1327.35 1463.32C1327.36 1457.9 1325.48 1452.65 1322.04 1448.48Z" fill="white"/>
<path d="M1001.57 1338.24C1078.68 1338.24 1141.19 1286.15 1141.19 1221.89C1141.19 1157.63 1078.68 1105.54 1001.57 1105.54C924.456 1105.54 861.945 1157.63 861.945 1221.89C861.945 1286.15 924.456 1338.24 1001.57 1338.24Z" fill="white"/>
<path d="M931.756 1372.85V1594.21H1071.38V1372.85C1026.2 1388.76 976.937 1388.76 931.756 1372.85Z" fill="white"/>
<path d="M815.405 1221.89C815.405 1170.57 842.695 1124.73 885.215 1094.86V965.914H769.679L791.346 1594.21H885.215V1348.91C842.695 1319.04 815.405 1273.21 815.405 1221.89Z" fill="white"/>
<path d="M1218.64 1395.29L1233.45 965.914H1117.92V1094.86C1160.44 1124.73 1187.73 1170.57 1187.73 1221.89C1187.73 1273.21 1160.44 1319.04 1117.92 1348.91V1594.21H1177.35C1167.39 1588.74 1158.92 1580.92 1152.68 1571.43C1146.43 1561.94 1142.6 1551.07 1141.52 1539.76C1140.43 1528.45 1142.13 1517.05 1146.46 1506.55C1150.79 1496.04 1157.62 1486.76 1166.36 1479.5C1164.22 1470.53 1163.89 1461.24 1165.36 1452.14C1166.84 1443.05 1170.1 1434.33 1174.96 1426.51C1179.82 1418.68 1186.18 1411.89 1193.68 1406.53C1201.17 1401.17 1209.66 1397.35 1218.64 1395.29Z" fill="white"/>
<path d="M629.243 616.861H675.783C675.806 591.642 667.881 567.057 653.135 546.598C638.389 526.14 617.572 510.848 593.64 502.895L590.056 501.702L575.349 545.857L578.924 547.05C593.584 551.922 606.336 561.289 615.369 573.821C624.402 586.353 629.257 601.412 629.243 616.861Z" fill="white"/>
<path d="M1261.32 407.429L1264.9 406.236L1250.19 362.081L1246.6 363.277C1222.67 371.228 1201.85 386.519 1187.11 406.977C1172.36 427.436 1164.44 452.021 1164.46 477.24H1211C1210.99 461.791 1215.84 446.731 1224.87 434.199C1233.91 421.667 1246.66 412.3 1261.32 407.429Z" fill="white"/>
<path d="M978.296 384.159H1024.84C1024.86 358.94 1016.93 334.355 1002.19 313.896C987.442 293.438 966.625 278.146 942.693 270.193L939.109 269L924.402 313.155L927.974 314.348C942.635 319.219 955.388 328.586 964.421 341.118C973.455 353.65 978.31 368.71 978.296 384.159Z" fill="white"/>
<path d="M1431.37 1224.27L1427.78 1223.08L1413.08 1267.23L1416.65 1268.43C1431.31 1273.3 1444.06 1282.67 1453.1 1295.2C1462.13 1307.73 1466.98 1322.79 1466.97 1338.24H1513.51C1513.53 1313.02 1505.61 1288.43 1490.86 1267.98C1476.12 1247.52 1455.3 1232.22 1431.37 1224.27Z" fill="white"/>
</svg>
