<svg width="708" height="708" viewBox="0 0 708 708" fill="none" xmlns="http://www.w3.org/2000/svg">
<path d="M354 23L428.869 212.83C435.779 230.353 439.233 239.114 444.525 246.502C449.214 253.051 454.948 258.785 461.498 263.475C468.886 268.766 477.647 272.221 495.172 279.132L685 354L495.172 428.869C477.647 435.779 468.886 439.233 461.498 444.525C454.948 449.214 449.214 454.948 444.525 461.498C439.233 468.886 435.779 477.647 428.869 495.172L354 685L279.132 495.172C272.221 477.647 268.766 468.886 263.475 461.498C258.785 454.948 253.051 449.214 246.502 444.525C239.114 439.233 230.353 435.779 212.83 428.869L23 354L212.83 279.132C230.353 272.221 239.114 268.766 246.502 263.475C253.051 258.785 258.785 253.051 263.475 246.502C268.766 239.114 272.221 230.353 279.132 212.83L354 23Z" stroke="#43A5FF" stroke-width="45" stroke-linecap="round" stroke-linejoin="round"/>
</svg>
