<svg width="800" height="420" viewBox="0 0 800 420" fill="none" xmlns="http://www.w3.org/2000/svg">
<path d="M790 340H800V360C794.02 360 787.44 360 780 360C757.92 360 740 377.92 740 400C740 407.32 740 414.1 740 420H60C60 414.1 60 407.32 60 400C60 377.92 42.08 360 20 360C13.62 360 6.68 360 0 360V340H10C15.52 340 20 335.52 20 330C20 324.48 15.52 320 10 320H0V300H10C15.52 300 20 295.52 20 290C20 284.48 15.52 280 10 280H0V260H10C15.52 260 20 255.52 20 250C20 244.48 15.52 240 10 240H0V220H10C15.52 220 20 215.52 20 210C20 204.48 15.52 200 10 200H0V180H10C15.52 180 20 175.52 20 170C20 164.48 15.52 160 10 160H0V140H10C15.52 140 20 135.52 20 130C20 124.48 15.52 120 10 120H0V100H10C15.52 100 20 95.52 20 90C20 84.48 15.52 80 10 80H0V60C5.98 60 12.56 60 20 60C42.08 60 60 42.08 60 20C60 12.68 60 5.9 60 0H740C740 5.9 740 12.68 740 20C740 42.08 757.92 60 780 60C787.44 60 794.02 60 800 60V80H790C784.48 80 780 84.48 780 90C780 95.52 784.48 100 790 100H800V120H790C784.48 120 780 124.48 780 130C780 135.52 784.48 140 790 140H800V160H790C784.48 160 780 164.48 780 170C780 175.52 784.48 180 790 180H800V200H790C784.48 200 780 204.48 780 210C780 215.52 784.48 220 790 220H800V240H790C784.48 240 780 244.48 780 250C780 255.52 784.48 260 790 260H800V280H790C784.48 280 780 284.48 780 290C780 295.52 784.48 300 790 300H800V320H790C784.48 320 780 324.48 780 330C780 335.52 784.48 340 790 340ZM720 100C720 77.92 702.08 60 680 60H120C97.92 60 80 77.92 80 100V320C80 342.08 97.92 360 120 360H680C702.08 360 720 342.08 720 320V100ZM680 340H120C108.94 340 100 331.04 100 320V100C100 88.94 108.94 80 120 80H680C691.04 80 700 88.94 700 100V320C700 331.04 691.04 340 680 340ZM227.74 159.76H148.28V171.56H181.32V260H194.6V171.56H227.72V159.76H227.74ZM255.36 159.76H242.08V260H255.36V159.76ZM295.18 189.8C297.26 183.56 300.92 178.6 306.1 174.92C311.26 171.22 317.7 169.38 325.4 169.38C332.1 169.38 337.66 171.04 342.08 174.38C346.52 177.7 349.88 183.02 352.2 190.32L365.24 187.24C362.56 178 357.8 170.82 350.96 165.72C344.12 160.62 335.68 158.06 325.66 158.06C316.82 158.06 308.72 160.08 301.36 164.12C294 168.16 288.34 174.06 284.32 181.84C280.34 189.62 278.34 198.72 278.34 209.14C278.34 218.72 280.12 227.68 283.66 236.02C287.2 244.36 292.34 250.74 299.08 255.14C305.86 259.54 314.64 261.74 325.44 261.74C335.86 261.74 344.7 258.88 351.92 253.16C359.14 247.44 364.14 239.14 366.92 228.24L353.64 224.88C351.82 233.32 348.32 239.68 343.2 243.98C338.04 248.26 331.78 250.4 324.34 250.4C318.24 250.4 312.56 248.82 307.32 245.68C302.08 242.54 298.22 237.78 295.74 231.42C293.26 225.06 292 217.62 292 209.08C292.04 202.44 293.08 196.02 295.18 189.8ZM467.26 159.76H449.3L399.54 209.36V159.76H386.26V260H399.54V225.24L415.98 209.34L451.64 260H469.14L425.24 200.4L467.26 159.76ZM558.76 248.2H497.28V214.06H552.68V202.26H497.28V171.56H556.42V159.76H484V260H558.76V248.2ZM652.5 159.76H573.04V171.56H606.08V260H619.36V171.56H652.48L652.5 159.76Z" fill="#0E8BFF"/>
</svg>
