<svg width="3448" height="1679" viewBox="0 0 3448 1679" fill="none" xmlns="http://www.w3.org/2000/svg">
<path d="M230.96 1398.75C131.396 1499.74 0 1679 0 1679L3448 1668.9V0C3448 0 3202.37 187.547 3036.56 295.403C2891.86 389.529 2813.96 450.266 2656.68 521.374C2500.87 591.814 2407.67 622.021 2240.19 656.451C2032.64 699.119 1908.36 660.74 1698.76 691.798C1506.32 720.314 1397.99 741.83 1212.86 801.628C1059.92 851.03 974.075 882.299 831.71 956.904C708.654 1021.39 643.772 1065.92 531.335 1147.53C407.58 1237.35 338.323 1289.84 230.96 1398.75Z" fill="#3E8BFF"/>
</svg>
