<svg width="4089" height="2715" viewBox="0 0 4089 2715" fill="none" xmlns="http://www.w3.org/2000/svg">
<path d="M315.458 2463.83C218.348 2587.8 0 2715 0 2715V0H4089C4089 0 3967.7 140.331 3870.72 206.316C3780.69 267.575 3725.34 301.61 3619.55 327.415C3499.3 356.746 3426.37 327.415 3302.6 327.415C3183.49 327.415 3116.07 339.709 2997.6 327.415C2839.13 310.969 2802.38 300.575 2682.14 327.415C2577.77 350.715 2519.3 376.258 2430.97 436.553C2334.11 502.67 2300.01 564.745 2223.16 653.334C2111.37 782.207 2068.07 869.935 1961.52 1003.17C1867.35 1120.94 1834.4 1209.85 1711.85 1297.7C1588.92 1385.82 1497.18 1398.92 1351.54 1439.73C1213.91 1478.29 1122.13 1446.62 991.227 1504.01C898.534 1544.66 851.073 1579.93 774.443 1646.04C625.958 1774.16 584.179 1887.94 490.381 2060.17C408.211 2211.05 421.407 2328.59 315.458 2463.83Z" fill="#3E8BFF"/>
</svg>
