<svg width="1451" height="357" viewBox="0 0 1451 357" fill="none" xmlns="http://www.w3.org/2000/svg">
<path d="M14.6172 14L100.534 99.9165" stroke="white" stroke-width="28" stroke-linecap="round"/>
<path d="M14.6172 256L100.534 341.916" stroke="white" stroke-width="28" stroke-linecap="round"/>
<path d="M816.617 14L902.534 99.9165" stroke="white" stroke-width="28" stroke-linecap="round"/>
<path d="M816.617 256L902.534 341.916" stroke="white" stroke-width="28" stroke-linecap="round"/>
<path d="M281.617 14L367.534 99.9165" stroke="white" stroke-width="28" stroke-linecap="round"/>
<path d="M281.617 256L367.534 341.916" stroke="white" stroke-width="28" stroke-linecap="round"/>
<path d="M1083.62 14L1169.53 99.9165" stroke="white" stroke-width="28" stroke-linecap="round"/>
<path d="M1083.62 256L1169.53 341.916" stroke="white" stroke-width="28" stroke-linecap="round"/>
<path d="M99.918 14.437L14.0015 100.353" stroke="white" stroke-width="28" stroke-linecap="round"/>
<path d="M99.918 256.437L14.0015 342.353" stroke="white" stroke-width="28" stroke-linecap="round"/>
<path d="M901.918 14.437L816.001 100.353" stroke="white" stroke-width="28" stroke-linecap="round"/>
<path d="M901.918 256.437L816.001 342.353" stroke="white" stroke-width="28" stroke-linecap="round"/>
<path d="M366.918 14.437L281.001 100.353" stroke="white" stroke-width="28" stroke-linecap="round"/>
<path d="M366.918 256.437L281.001 342.353" stroke="white" stroke-width="28" stroke-linecap="round"/>
<path d="M1168.92 14.437L1083 100.353" stroke="white" stroke-width="28" stroke-linecap="round"/>
<path d="M1168.92 256.437L1083 342.353" stroke="white" stroke-width="28" stroke-linecap="round"/>
<path d="M548.617 14L634.534 99.9165" stroke="white" stroke-width="28" stroke-linecap="round"/>
<path d="M633.918 14.437L548.001 100.353" stroke="white" stroke-width="28" stroke-linecap="round"/>
<path d="M548.617 256L634.534 341.916" stroke="white" stroke-width="28" stroke-linecap="round"/>
<path d="M633.918 256.437L548.001 342.353" stroke="white" stroke-width="28" stroke-linecap="round"/>
<path d="M1350.62 14L1436.53 99.9165" stroke="white" stroke-width="28" stroke-linecap="round"/>
<path d="M1435.92 14.437L1350 100.353" stroke="white" stroke-width="28" stroke-linecap="round"/>
<path d="M1350.62 256L1436.53 341.916" stroke="white" stroke-width="28" stroke-linecap="round"/>
<path d="M1435.92 256.437L1350 342.353" stroke="white" stroke-width="28" stroke-linecap="round"/>
</svg>
