<svg width="1008" height="1433" viewBox="0 0 1008 1433" fill="none" xmlns="http://www.w3.org/2000/svg">
<rect width="88" height="88" fill="white"/>
<rect x="605" y="339" width="88" height="88" fill="white"/>
<rect y="667" width="88" height="88" fill="white"/>
<rect x="605" y="1006" width="88" height="88" fill="white"/>
<rect x="315" width="88" height="88" fill="white"/>
<rect x="920" y="339" width="88" height="88" fill="white"/>
<rect x="315" y="667" width="88" height="88" fill="white"/>
<rect x="315" y="338.5" width="88" height="88" fill="white"/>
<rect x="920" y="1006" width="88" height="88" fill="white"/>
<rect x="920" y="678" width="88" height="88" fill="white"/>
<rect x="315" y="1006" width="88" height="88" fill="white"/>
<rect x="920" y="1345" width="88" height="88" fill="white"/>
<rect y="339" width="88" height="88" fill="white"/>
<rect x="605" y="678" width="88" height="88" fill="white"/>
<rect y="1006" width="88" height="88" fill="white"/>
<rect x="605" y="1345" width="88" height="88" fill="white"/>
</svg>
