<svg width="8685" height="4669" viewBox="0 0 8685 4669" fill="none" xmlns="http://www.w3.org/2000/svg">
<rect x="3" y="13.5" width="8677" height="4653" fill="#2C3A50"/>
<g filter="url(#filter0_d_565_5)">
<path d="M318.458 2477.33C221.348 2601.3 3 2728.5 3 2728.5V13.5H4092C4092 13.5 3970.7 153.831 3873.72 219.816C3783.69 281.075 3728.34 315.11 3622.55 340.915C3502.3 370.246 3429.37 340.915 3305.6 340.915C3186.49 340.915 3119.07 353.209 3000.6 340.915C2842.13 324.469 2805.38 314.075 2685.14 340.915C2580.77 364.215 2522.3 389.758 2433.97 450.053C2337.11 516.17 2303.01 578.245 2226.16 666.834C2114.37 795.707 2071.07 883.435 1964.52 1016.67C1870.35 1134.44 1837.4 1223.35 1714.85 1311.2C1591.92 1399.32 1500.18 1412.42 1354.54 1453.23C1216.91 1491.79 1125.13 1460.12 994.227 1517.51C901.534 1558.16 854.073 1593.43 777.443 1659.54C628.958 1787.66 587.179 1901.44 493.381 2073.67C411.211 2224.55 424.407 2342.09 318.458 2477.33Z" fill="#3E8BFF"/>
</g>
<g filter="url(#filter1_d_565_5)">
<path d="M5462.96 4386.25C5363.4 4487.24 5232 4666.5 5232 4666.5L8680 4656.4V2987.5C8680 2987.5 8434.37 3175.05 8268.56 3282.9C8123.86 3377.03 8045.96 3437.77 7888.68 3508.87C7732.87 3579.31 7639.67 3609.52 7472.19 3643.95C7264.64 3686.62 7140.36 3648.24 6930.76 3679.3C6738.32 3707.81 6629.99 3729.33 6444.86 3789.13C6291.92 3838.53 6206.08 3869.8 6063.71 3944.4C5940.65 4008.89 5875.77 4053.42 5763.34 4135.03C5639.58 4224.85 5570.32 4277.34 5462.96 4386.25Z" fill="#3E8BFF"/>
</g>
<path d="M4839.62 4050.5L4925.53 4136.42" stroke="white" stroke-width="28" stroke-linecap="round"/>
<path d="M4839.62 4292.5L4925.53 4378.42" stroke="white" stroke-width="28" stroke-linecap="round"/>
<path d="M5641.62 4050.5L5727.53 4136.42" stroke="white" stroke-width="28" stroke-linecap="round"/>
<path d="M5641.62 4292.5L5727.53 4378.42" stroke="white" stroke-width="28" stroke-linecap="round"/>
<path d="M5106.62 4050.5L5192.53 4136.42" stroke="white" stroke-width="28" stroke-linecap="round"/>
<path d="M5106.62 4292.5L5192.53 4378.42" stroke="white" stroke-width="28" stroke-linecap="round"/>
<path d="M5908.62 4050.5L5994.53 4136.42" stroke="white" stroke-width="28" stroke-linecap="round"/>
<path d="M5908.62 4292.5L5994.53 4378.42" stroke="white" stroke-width="28" stroke-linecap="round"/>
<path d="M4924.91 4050.94L4839 4136.85" stroke="white" stroke-width="28" stroke-linecap="round"/>
<path d="M3471.62 213.5L3557.53 299.416" stroke="white" stroke-width="28" stroke-linecap="round"/>
<path d="M3556.92 213.938L3471 299.854" stroke="white" stroke-width="28" stroke-linecap="round"/>
<path d="M4924.91 4292.94L4839 4378.85" stroke="white" stroke-width="28" stroke-linecap="round"/>
<path d="M3471.62 455.5L3557.53 541.416" stroke="white" stroke-width="28" stroke-linecap="round"/>
<path d="M3556.92 455.938L3471 541.854" stroke="white" stroke-width="28" stroke-linecap="round"/>
<path d="M5726.91 4050.94L5641 4136.85" stroke="white" stroke-width="28" stroke-linecap="round"/>
<path d="M5726.91 4292.94L5641 4378.85" stroke="white" stroke-width="28" stroke-linecap="round"/>
<path d="M5191.91 4050.94L5106 4136.85" stroke="white" stroke-width="28" stroke-linecap="round"/>
<path d="M3738.62 213.5L3824.53 299.416" stroke="white" stroke-width="28" stroke-linecap="round"/>
<path d="M3823.92 213.938L3738 299.854" stroke="white" stroke-width="28" stroke-linecap="round"/>
<path d="M5191.91 4292.94L5106 4378.85" stroke="white" stroke-width="28" stroke-linecap="round"/>
<path d="M3738.62 455.5L3824.53 541.416" stroke="white" stroke-width="28" stroke-linecap="round"/>
<path d="M3823.92 455.938L3738 541.854" stroke="white" stroke-width="28" stroke-linecap="round"/>
<path d="M5993.91 4050.94L5908 4136.85" stroke="white" stroke-width="28" stroke-linecap="round"/>
<path d="M5993.91 4292.94L5908 4378.85" stroke="white" stroke-width="28" stroke-linecap="round"/>
<path d="M5373.62 4050.5L5459.53 4136.42" stroke="white" stroke-width="28" stroke-linecap="round"/>
<path d="M5458.92 4050.94L5373 4136.85" stroke="white" stroke-width="28" stroke-linecap="round"/>
<path d="M4005.62 213.5L4091.53 299.416" stroke="white" stroke-width="28" stroke-linecap="round"/>
<path d="M4090.92 213.938L4005 299.854" stroke="white" stroke-width="28" stroke-linecap="round"/>
<path d="M5373.62 4292.5L5459.53 4378.42" stroke="white" stroke-width="28" stroke-linecap="round"/>
<path d="M5458.92 4292.94L5373 4378.85" stroke="white" stroke-width="28" stroke-linecap="round"/>
<path d="M4005.62 455.5L4091.53 541.416" stroke="white" stroke-width="28" stroke-linecap="round"/>
<path d="M4090.92 455.938L4005 541.854" stroke="white" stroke-width="28" stroke-linecap="round"/>
<path d="M6175.62 4050.5L6261.53 4136.42" stroke="white" stroke-width="28" stroke-linecap="round"/>
<path d="M6260.92 4050.94L6175 4136.85" stroke="white" stroke-width="28" stroke-linecap="round"/>
<path d="M6175.62 4292.5L6261.53 4378.42" stroke="white" stroke-width="28" stroke-linecap="round"/>
<path d="M6260.92 4292.94L6175 4378.85" stroke="white" stroke-width="28" stroke-linecap="round"/>
<rect x="593" y="948.5" width="88" height="88" fill="white"/>
<rect x="1198" y="1287.5" width="88" height="88" fill="white"/>
<rect x="593" y="1615.5" width="88" height="88" fill="white"/>
<rect x="1198" y="1954.5" width="88" height="88" fill="white"/>
<rect x="908" y="948.5" width="88" height="88" fill="white"/>
<rect x="1513" y="1287.5" width="88" height="88" fill="white"/>
<rect x="908" y="1615.5" width="88" height="88" fill="white"/>
<rect x="1513" y="1954.5" width="88" height="88" fill="white"/>
<rect x="1513" y="1626.5" width="88" height="88" fill="white"/>
<rect x="908" y="1954.5" width="88" height="88" fill="white"/>
<rect x="1513" y="2293.5" width="88" height="88" fill="white"/>
<rect x="593" y="1287.5" width="88" height="88" fill="white"/>
<rect x="1198" y="1626.5" width="88" height="88" fill="white"/>
<rect x="593" y="1954.5" width="88" height="88" fill="white"/>
<rect x="1198" y="2293.5" width="88" height="88" fill="white"/>
<path d="M5050 4666.5C5050 4666.5 5394.91 3877 5811.78 3583.97C6357.28 3200.52 6876.48 3618.76 7480.69 3347.59C8020.26 3105.42 8680 2400.5 8680 2400.5" stroke="#97C1FF" stroke-width="12"/>
<path d="M3 2894.5C3 2894.5 667.886 2650.04 1026.5 2382.53C1304.53 2175.14 1428.67 2017.9 1660 1758.81C1917.88 1469.99 1916.27 1137.35 2266 973.498C2626.45 804.62 2901.59 1144.53 3282.5 1029.88C3816.67 869.105 4292 13.5 4292 13.5" stroke="#93BEFF" stroke-width="17"/>
<path d="M14.5 2220.5C14.5 2220.5 628.101 2165.71 1018.5 2109C1487.73 2040.84 1799.08 2119.06 2212 1886C2533.93 1704.3 2694.28 1540.03 2892.5 1228C3050.88 978.684 2993.33 760.582 3171.5 525C3546.28 29.4484 4677.5 12 4677.5 12" stroke="#79AFFF" stroke-width="23"/>
<line x1="663.043" y1="4494.68" x2="1054.04" y2="4089.68" stroke="white" stroke-width="11"/>
<line x1="1141.04" y1="4495.68" x2="1532.04" y2="4090.68" stroke="white" stroke-width="11"/>
<line x1="916.043" y1="4494.68" x2="1307.04" y2="4089.68" stroke="white" stroke-width="11"/>
<line x1="1394.04" y1="4495.68" x2="1785.04" y2="4090.68" stroke="white" stroke-width="11"/>
<line x1="779.043" y1="4494.68" x2="1170.04" y2="4089.68" stroke="white" stroke-width="11"/>
<line x1="1257.04" y1="4495.68" x2="1648.04" y2="4090.68" stroke="white" stroke-width="11"/>
<line x1="1032.04" y1="4494.68" x2="1423.04" y2="4089.68" stroke="white" stroke-width="11"/>
<line x1="1510.04" y1="4495.68" x2="1901.04" y2="4090.68" stroke="white" stroke-width="11"/>
<line x1="6815.04" y1="614.68" x2="7206.04" y2="209.68" stroke="#3E8BFF" stroke-width="11"/>
<line x1="7293.04" y1="615.68" x2="7684.04" y2="210.68" stroke="#3E8BFF" stroke-width="11"/>
<line x1="7068.04" y1="614.68" x2="7459.04" y2="209.68" stroke="#3E8BFF" stroke-width="11"/>
<line x1="7546.04" y1="615.68" x2="7937.04" y2="210.68" stroke="#3E8BFF" stroke-width="11"/>
<line x1="6931.04" y1="614.68" x2="7322.04" y2="209.68" stroke="#3E8BFF" stroke-width="11"/>
<line x1="7409.04" y1="615.68" x2="7800.04" y2="210.68" stroke="#3E8BFF" stroke-width="11"/>
<line x1="7184.04" y1="614.68" x2="7575.04" y2="209.68" stroke="#3E8BFF" stroke-width="11"/>
<line x1="7662.04" y1="615.68" x2="8053.04" y2="210.68" stroke="#3E8BFF" stroke-width="11"/>
<circle cx="7169" cy="2089.5" r="57.5" stroke="#3E8BFF" stroke-width="31"/>
<circle cx="7169" cy="1845.5" r="57.5" stroke="#3E8BFF" stroke-width="31"/>
<circle cx="7457" cy="2089.5" r="57.5" stroke="#3E8BFF" stroke-width="31"/>
<circle cx="7457" cy="1845.5" r="57.5" stroke="#3E8BFF" stroke-width="31"/>
<circle cx="7761" cy="2089.5" r="57.5" stroke="#3E8BFF" stroke-width="31"/>
<circle cx="7761" cy="1845.5" r="57.5" stroke="#3E8BFF" stroke-width="31"/>
<circle cx="8065" cy="2089.5" r="57.5" stroke="#3E8BFF" stroke-width="31"/>
<circle cx="8065" cy="1845.5" r="57.5" stroke="#3E8BFF" stroke-width="31"/>
<circle cx="8353" cy="2089.5" r="57.5" stroke="#3E8BFF" stroke-width="31"/>
<circle cx="8353" cy="1845.5" r="57.5" stroke="#3E8BFF" stroke-width="31"/>
<circle cx="3568" cy="3952.5" r="355.5" stroke="#3E8BFF" stroke-width="55"/>
<circle cx="3568" cy="3952.5" r="201.5" stroke="#3E8BFF" stroke-width="55"/>
<defs>
<filter id="filter0_d_565_5" x="3" y="13.5" width="4122.5" height="2769.5" filterUnits="userSpaceOnUse" color-interpolation-filters="sRGB">
<feFlood flood-opacity="0" result="BackgroundImageFix"/>
<feColorMatrix in="SourceAlpha" type="matrix" values="0 0 0 0 0 0 0 0 0 0 0 0 0 0 0 0 0 0 127 0" result="hardAlpha"/>
<feOffset dx="21" dy="42"/>
<feGaussianBlur stdDeviation="6.25"/>
<feComposite in2="hardAlpha" operator="out"/>
<feColorMatrix type="matrix" values="0 0 0 0 0 0 0 0 0 0 0 0 0 0 0 0 0 0 0.25 0"/>
<feBlend mode="normal" in2="BackgroundImageFix" result="effect1_dropShadow_565_5"/>
<feBlend mode="normal" in="SourceGraphic" in2="effect1_dropShadow_565_5" result="shape"/>
</filter>
<filter id="filter1_d_565_5" x="5178.7" y="2920.2" width="3501.3" height="1746.3" filterUnits="userSpaceOnUse" color-interpolation-filters="sRGB">
<feFlood flood-opacity="0" result="BackgroundImageFix"/>
<feColorMatrix in="SourceAlpha" type="matrix" values="0 0 0 0 0 0 0 0 0 0 0 0 0 0 0 0 0 0 127 0" result="hardAlpha"/>
<feOffset dx="-44" dy="-58"/>
<feGaussianBlur stdDeviation="4.65"/>
<feComposite in2="hardAlpha" operator="out"/>
<feColorMatrix type="matrix" values="0 0 0 0 0 0 0 0 0 0 0 0 0 0 0 0 0 0 0.25 0"/>
<feBlend mode="normal" in2="BackgroundImageFix" result="effect1_dropShadow_565_5"/>
<feBlend mode="normal" in="SourceGraphic" in2="effect1_dropShadow_565_5" result="shape"/>
</filter>
</defs>
</svg>
