<svg width="392" height="416" viewBox="0 0 392 416" fill="none" xmlns="http://www.w3.org/2000/svg">
<path d="M283.655 205.481C251.692 175.287 221.463 172.632 199.392 170.694C182.331 169.195 172.935 168.371 159.829 155.991C146.722 143.609 145.364 134.274 142.898 117.323C139.707 95.3964 135.338 65.3696 103.376 35.1753C71.4108 4.97861 41.1831 2.32743 19.1115 0.389417C18.6046 0.346044 18.1033 0.331403 17.6076 0.345505C11.2229 0.530744 5.84636 5.47108 5.27445 11.9905L3.13555 36.3543C3.12309 36.5088 3.11586 36.5933 3.1098 36.6766L0.989894 60.8616C0.37331 67.8844 5.56805 74.0773 12.5909 74.6939C29.6518 76.1904 39.0489 77.0128 52.157 89.3958C65.2652 101.779 66.6216 111.113 69.0895 128.069C72.2802 149.994 76.6491 180.021 108.61 210.214C140.573 240.408 170.799 243.063 192.877 245C209.936 246.499 219.331 247.322 232.437 259.703C245.544 272.085 246.902 281.42 249.367 298.374C252.558 320.299 256.927 350.325 288.889 380.52C320.853 410.715 351.071 413.369 373.135 415.305C377.18 415.661 380.95 414.089 383.538 411.35C385.443 409.333 386.708 406.685 386.969 403.707L391.262 354.837C391.559 351.465 390.501 348.113 388.326 345.517C386.149 342.922 383.032 341.298 379.66 341.001C362.611 339.505 353.219 338.68 340.113 326.299C327.005 313.916 325.648 304.582 323.182 287.627C319.986 265.7 315.616 235.674 283.655 205.481ZM297.912 291.305C300.648 310.124 303.013 326.377 322.575 344.857C337.647 359.095 350.815 363.215 364.725 365.116L362.665 388.574C345.56 386.356 326.764 381.176 306.42 361.958C280.912 337.861 277.574 314.928 274.63 294.693C271.892 275.873 269.529 259.622 249.967 241.142C230.407 222.664 214.05 221.229 195.097 219.563C174.731 217.775 151.647 215.747 126.14 191.65C100.634 167.555 97.2949 144.622 94.3508 124.383C91.612 105.564 89.2473 89.3136 69.6852 70.8338C54.6097 56.5922 41.4356 52.4734 27.5154 50.572L29.5742 27.1159C46.6881 29.3322 65.4925 34.5106 85.8402 53.7327C111.348 77.8291 114.685 100.763 117.632 121C120.369 139.818 122.734 156.068 142.296 174.548C161.855 193.026 178.214 194.463 197.16 196.127C217.53 197.916 240.614 199.945 266.122 224.041C291.629 248.137 294.966 271.069 297.912 291.305Z" fill="#43A5FF"/>
</svg>
